<svg xmlns="http://www.w3.org/2000/svg" data-name="Layer 5" viewBox="0 0 24 24" x="0px" y="0px"><title>Wildlife Avatar</title><path d="M13.75,9.5A1.25,1.25,0,1,0,15,8.25,1.2511,1.2511,0,0,0,13.75,9.5Zm2,0A.75.75,0,1,1,15,8.75.7511.7511,0,0,1,15.75,9.5Z"/><path d="M7.75,9.5A1.25,1.25,0,1,0,9,8.25,1.2511,1.2511,0,0,0,7.75,9.5Zm2,0A.75.75,0,1,1,9,8.75.7511.7511,0,0,1,9.75,9.5Z"/><path d="M20.7588,10.7876a2.0057,2.0057,0,0,1-.1865-.3755.25.25,0,0,0-.4688.1758,2.5977,2.5977,0,0,0,.2315.4653,2.7286,2.7286,0,0,1,0,2.8931,2.5752,2.5752,0,0,0-.3936,1.4683A2.73,2.73,0,0,1,18.4951,17.92,2.5831,2.5831,0,0,0,17.42,18.9951a2.6293,2.6293,0,0,1-2.2514,1.4195,2.1767,2.1767,0,0,0,.4165-.3252A2.2,2.2,0,0,0,16.25,18.5v-1a.25.25,0,0,0-.5,0v1A1.7633,1.7633,0,0,1,14,20.25a1.7522,1.7522,0,0,1-1.75-1.75V15.6994a1.2177,1.2177,0,0,0,.95-.9494H15a.7511.7511,0,0,1,.75.75v1a.25.25,0,0,0,.5,0v-1A1.2511,1.2511,0,0,0,15,14.25H9A1.2511,1.2511,0,0,0,7.75,15.5v3a2.2427,2.2427,0,0,0,1.1227,1.9357,2.642,2.642,0,0,1-1.2477-.3586A2.7217,2.7217,0,0,1,6.58,18.9951,2.5831,2.5831,0,0,0,5.5049,17.92,2.73,2.73,0,0,1,4.0586,15.415a2.573,2.573,0,0,0-.3936-1.4682,2.7286,2.7286,0,0,1,0-2.8931A2.5788,2.5788,0,0,0,4.0586,9.585,2.73,2.73,0,0,1,5.5049,7.08,2.5831,2.5831,0,0,0,6.58,6.0049a2.7,2.7,0,0,1,.5869-.751.25.25,0,1,0-.334-.3721,3.1921,3.1921,0,0,0-.6943.8887,2.0622,2.0622,0,0,1-.8682.8682c-.0076.004-.013.0108-.0205.0149V4.5a1.7454,1.7454,0,0,1,3.4421-.4143,3.19,3.19,0,0,0-.8474.18A.25.25,0,0,0,7.7,4.5884a.2531.2531,0,0,0,.3223.145A2.677,2.677,0,0,1,9.085,4.5591a2.6423,2.6423,0,0,0,1.4687-.3941,2.7722,2.7722,0,0,1,2.8926,0,2.658,2.658,0,0,0,1.4687.3941A2.7235,2.7235,0,0,1,17.42,6.0049,2.5831,2.5831,0,0,0,18.4951,7.08,2.7313,2.7313,0,0,1,19.9434,9.499a.25.25,0,0,0,.249.251h.001a.25.25,0,0,0,.25-.249,3.2351,3.2351,0,0,0-.4327-1.626,3.19,3.19,0,0,0-.7607-.8588V4.5a2.2435,2.2435,0,0,0-4.4425-.4509,2.0311,2.0311,0,0,1-1.0956-.3079,3.2813,3.2813,0,0,0-3.4238,0,2.06,2.06,0,0,1-1.0956.3079A2.2435,2.2435,0,0,0,4.75,4.5V7.0162a3.19,3.19,0,0,0-.7607.8588,3.2265,3.2265,0,0,0-.4307,1.728,2.08,2.08,0,0,1-.3174,1.1856,3.2278,3.2278,0,0,0,0,3.4233,2.0737,2.0737,0,0,1,.3174,1.1851,3.2275,3.2275,0,0,0,1.7119,2.9643,2.0622,2.0622,0,0,1,.8682.8682,3.2277,3.2277,0,0,0,2.9638,1.7114,2.0463,2.0463,0,0,1,1.1856.3179,3.2287,3.2287,0,0,0,3.4238,0,2.0735,2.0735,0,0,1,1.1856-.3179,3.142,3.142,0,0,0,1.7275-.43A3.214,3.214,0,0,0,17.8613,19.23a2.0622,2.0622,0,0,1,.8682-.8682,3.2275,3.2275,0,0,0,1.7119-2.9648,2.0758,2.0758,0,0,1,.3174-1.1851,3.2287,3.2287,0,0,0,0-3.4238ZM17,2.75A1.7522,1.7522,0,0,1,18.75,4.5V6.6536c-.0075-.0041-.0129-.0109-.02-.0149a2.0622,2.0622,0,0,1-.8682-.8682,3.22,3.22,0,0,0-2.5506-1.699A1.7676,1.7676,0,0,1,17,2.75Zm-4.3007,12a.739.739,0,0,1-1.3986,0ZM10,20.25A1.7522,1.7522,0,0,1,8.25,18.5v-3A.7511.7511,0,0,1,9,14.75h1.8006a1.2176,1.2176,0,0,0,.9494.9494V18.5A1.7633,1.7633,0,0,1,10,20.25Zm3.4463.585a2.7722,2.7722,0,0,1-2.8926,0,2.509,2.509,0,0,0-.2233-.1173,2.18,2.18,0,0,0,1.2546-.6283,2.24,2.24,0,0,0,.416-.5581A2.2414,2.2414,0,0,0,13.69,20.706,2.6216,2.6216,0,0,0,13.4463,20.835Z"/></svg>