<svg xmlns="http://www.w3.org/2000/svg" xmlns:xlink="http://www.w3.org/1999/xlink" version="1.1" x="0px" y="0px" viewBox="0 0 100 140" enable-background="new 0 0 144.083 144" xml:space="preserve"><path d="M77.586,101.107h-11.09c-1.657,0-3,1.343-3,3s1.343,3,3,3h2.545v8.721c0,1.657,1.343,3,3,3c1.656,0,3-1.343,3-3v-8.721  h2.545c1.657,0,3-1.343,3-3S79.244,101.107,77.586,101.107z"/><path d="M111.961,9.745c-0.937-1.222-2.648-1.537-3.958-0.727c-0.492,0.304-11.211,7.047-14.671,17.968  c-0.628-0.1-1.268-0.166-1.924-0.166c-3.945,0-7.445,1.877-9.684,4.775c-2.238-2.898-5.738-4.775-9.684-4.775  s-7.445,1.877-9.684,4.775c-2.238-2.898-5.738-4.775-9.684-4.775c-0.657,0-1.296,0.066-1.925,0.166  C47.289,16.066,36.573,9.323,36.081,9.019c-1.31-0.81-3.021-0.496-3.958,0.726c-0.381,0.497-9.31,12.319-7.004,24.887  c1.076,5.858,3.163,10.938,5.8,14.677c-0.106,0.649-0.167,1.313-0.167,1.992c0,4.803,2.775,8.949,6.804,10.953  c-0.083,0.98-0.136,1.968-0.136,2.969v18.573c-5.343,4.344-8.49,10.887-8.49,17.802c0,12.652,10.293,22.945,22.945,22.945h3.281  c2.966,6.594,9.499,10.887,16.886,10.887c7.388,0,13.92-4.292,16.885-10.887h3.281c12.652,0,22.945-10.293,22.945-22.945  c0-6.915-3.146-13.458-8.49-17.802V65.223c0-1.001-0.053-1.989-0.136-2.969c4.028-2.003,6.804-6.149,6.804-10.953  c0-0.679-0.062-1.343-0.168-1.991c2.638-3.74,4.725-8.819,5.801-14.678C121.268,22.063,112.342,10.242,111.961,9.745z   M31.021,33.548c-1.283-6.992,2.12-14.093,4.266-17.708c3.05,2.429,8.164,7.275,9.917,13.54c-2.896,2.239-4.769,5.737-4.769,9.68  c0,0.09,0.011,0.178,0.014,0.268c-2.487,0.526-4.69,1.811-6.369,3.595C32.785,40.329,31.681,37.145,31.021,33.548z M109.153,101.598  c0,9.344-7.602,16.945-16.945,16.945h-5.346c-1.312,0-2.472,0.853-2.863,2.104c-1.643,5.253-6.448,8.782-11.957,8.782  c-5.509,0-10.315-3.529-11.958-8.782c-0.392-1.252-1.551-2.104-2.863-2.104h-5.346c-9.344,0-16.945-7.602-16.945-16.945  c0-5.498,2.698-10.679,7.217-13.859c0.798-0.562,1.273-1.477,1.273-2.453V65.223c0-0.575,0.022-1.146,0.056-1.712  c3.745-0.148,7.054-1.967,9.199-4.745c2.238,2.898,5.739,4.773,9.684,4.773c3.945,0,7.446-1.875,9.684-4.773  c2.236,2.898,5.738,4.773,9.684,4.773c3.943,0,7.445-1.875,9.684-4.773c2.146,2.778,5.454,4.597,9.198,4.745  c0.033,0.567,0.056,1.137,0.056,1.712v20.063c0,0.977,0.475,1.892,1.273,2.453C106.455,90.919,109.153,96.1,109.153,101.598z   M113.061,33.548c-0.66,3.595-1.764,6.782-3.061,9.371c-1.679-1.782-3.881-3.065-6.367-3.591c0.004-0.09,0.014-0.178,0.014-0.268  c0-3.943-1.872-7.442-4.769-9.681c1.755-6.27,6.877-11.119,9.925-13.544C110.951,19.439,114.351,26.518,113.061,33.548z"/><circle cx="54.042" cy="79.162" r="5.375"/><circle cx="90.042" cy="79.162" r="5.375"/></svg>